<svg width="18" height="12" viewBox="0 0 18 12" fill="none" xmlns="http://www.w3.org/2000/svg">
<path d="M19.7143 11.2143C18.6964 9.63393 17.4208 8.45201 15.8873 7.66853C16.2958 8.36496 16.5 9.1183 16.5 9.92857C16.5 11.1674 16.058 12.2288 15.1741 13.1127C14.2969 13.99 13.2388 14.4286 12 14.4286C10.7612 14.4286 9.69978 13.99 8.81585 13.1127C7.93862 12.2288 7.5 11.1674 7.5 9.92857C7.5 9.1183 7.70424 8.36496 8.11272 7.66853C6.57924 8.45201 5.30357 9.63393 4.28571 11.2143C5.17634 12.5871 6.29129 13.6819 7.63058 14.4989C8.97656 15.3092 10.433 15.7143 12 15.7143C13.567 15.7143 15.0201 15.3092 16.3594 14.4989C17.7054 13.6819 18.8237 12.5871 19.7143 11.2143ZM12.3415 7.69866C12.4353 7.60491 12.4821 7.49107 12.4821 7.35714C12.4821 7.22321 12.4353 7.10938 12.3415 7.01562C12.2478 6.92187 12.1339 6.875 12 6.875C11.1629 6.875 10.4431 7.17634 9.8404 7.77902C9.24442 8.375 8.94643 9.09152 8.94643 9.92857C8.94643 10.0625 8.9933 10.1763 9.08705 10.2701C9.1808 10.3638 9.29464 10.4107 9.42857 10.4107C9.5625 10.4107 9.67634 10.3638 9.77009 10.2701C9.86384 10.1763 9.91071 10.0625 9.91071 9.92857C9.91071 9.35268 10.115 8.86049 10.5234 8.45201C10.9319 8.04353 11.4241 7.83929 12 7.83929C12.1339 7.83929 12.2478 7.79241 12.3415 7.69866ZM20.7991 10.5212C20.933 10.7556 21 10.9866 21 11.2143C21 11.442 20.933 11.673 20.7991 11.9074C19.8616 13.4475 18.5993 14.683 17.0123 15.6138C15.4319 16.5379 13.7612 17 12 17C10.2388 17 8.56473 16.5346 6.97768 15.6038C5.39732 14.673 4.13839 13.4408 3.20089 11.9074C3.06696 11.673 3 11.442 3 11.2143C3 10.9866 3.06696 10.7556 3.20089 10.5212C4.13839 8.98772 5.39732 7.75558 6.97768 6.82478C8.56473 5.89397 10.2388 5.42857 12 5.42857C13.7612 5.42857 15.4319 5.89397 17.0123 6.82478C18.5993 7.75558 19.8616 8.98772 20.7991 10.5212Z" transform="translate(-3 -5)" fill="#696969"/>
</svg>
